# MagicaVoxel @ Ephtracy

# group
o 

# material
mtllib Grass.vox.mtl
usemtl palette

# normals
vn -1 0 0
vn 1 0 0
vn 0 0 1
vn 0 0 -1
vn 0 -1 0
vn 0 1 0

# texcoords
vt 0.337891 0.5
vt 0.373047 0.5
vt 0.896484 0.5
vt 0.900391 0.5

# verts
v -1 0 1
v -1 0 -1
v -1 1.4 0.2
v -1 1.4 -0.2
v -1 1.4 -0.4
v -1 1.4 -0.8
v -1 1.5 0.4
v -1 1.5 0.2
v -1 1.5 0
v -1 1.5 -0.1
v -1 1.5 -0.2
v -1 1.5 -0.3
v -1 1.5 -0.4
v -1 1.5 -0.6
v -1 1.5 -0.8
v -1 1.5 -0.9
v -1 1.6 0.8
v -1 1.6 0.6
v -1 1.6 0.3
v -1 1.6 0.1
v -1 1.6 0
v -1 1.6 -0.1
v -1 1.6 -0.3
v -1 1.6 -0.7
v -1 1.6 -0.9
v -1 1.7 0.6
v -1 1.7 0.4
v -1 1.7 0.3
v -1 1.7 0.1
v -1 1.7 -0.1
v -1 1.7 -0.6
v -1 1.7 -0.7
v -1 1.7 -0.8
v -1 1.8 1
v -1 1.8 0.8
v -1 1.8 -0.8
v -1 1.8 -1
v -1 2 1
v -1 2 -1
v 1 0 1
v 1 0 -1
v 1 1.5 0.4
v 1 1.5 0.3
v 1 1.6 1
v 1 1.6 0.8
v 1 1.6 0.3
v 1 1.6 0.2
v 1 1.7 0.8
v 1 1.7 0.7
v 1 1.7 0.5
v 1 1.7 0.4
v 1 1.7 0.2
v 1 1.7 0.1
v 1 1.7 -0.2
v 1 1.7 -0.5
v 1 1.7 -0.8
v 1 1.7 -1
v 1 1.8 0.7
v 1 1.8 0.5
v 1 1.8 0.1
v 1 1.8 -0.2
v 1 1.8 -0.5
v 1 1.8 -0.8
v 1 2 1
v 1 2 -1
v -1 0 1
v -1 1.8 1
v -1 2 1
v -0.9 1.7 1
v -0.9 1.8 1
v -0.8 1.6 1
v -0.8 1.7 1
v -0.7 1.6 1
v -0.7 1.7 1
v -0.4 1.7 1
v -0.4 1.8 1
v -0.1 1.7 1
v -0.1 1.8 1
v 0.5 1.7 1
v 0.5 1.8 1
v 0.7 1.6 1
v 0.7 1.8 1
v 0.8 1.5 1
v 0.8 1.6 1
v 0.9 1.5 1
v 0.9 1.6 1
v 1 0 1
v 1 1.6 1
v 1 2 1
v -1 0 -1
v -1 1.8 -1
v -1 2 -1
v -0.9 1.7 -1
v -0.9 1.8 -1
v -0.7 1.4 -1
v -0.7 1.5 -1
v -0.6 1.7 -1
v -0.6 1.8 -1
v -0.5 1.4 -1
v -0.5 1.5 -1
v -0.5 1.8 -1
v -0.4 1.5 -1
v -0.4 1.6 -1
v -0.3 1.4 -1
v -0.3 1.6 -1
v -0.3 1.7 -1
v -0.3 1.8 -1
v -0.2 1.5 -1
v -0.2 1.7 -1
v -0.1 1.4 -1
v -0.1 1.5 -1
v -0.1 1.6 -1
v -0.1 1.7 -1
v 0 1.6 -1
v 0 1.7 -1
v 0 1.8 -1
v 0.2 1.7 -1
v 0.2 1.8 -1
v 0.4 1.7 -1
v 0.4 1.8 -1
v 0.5 1.4 -1
v 0.5 1.5 -1
v 0.5 1.6 -1
v 0.5 1.7 -1
v 0.6 1.5 -1
v 0.6 1.6 -1
v 0.7 1.4 -1
v 0.7 1.5 -1
v 0.8 1.5 -1
v 0.8 1.6 -1
v 0.9 1.6 -1
v 0.9 1.7 -1
v 1 0 -1
v 1 1.7 -1
v 1 2 -1
v -1 0 1
v 1 0 1
v -1 0 -1
v 1 0 -1
v -1 2 1
v 1 2 1
v -0.6 2 0.8
v -0.5 2 0.8
v -0.6 2 0.7
v -0.5 2 0.7
v 0.1 2 0.7
v 0.2 2 0.7
v 0.1 2 0.6
v 0.2 2 0.6
v 0.3 2 0.6
v 0.5 2 0.6
v 0.6 2 0.6
v 0.2 2 0.5
v 0.3 2 0.5
v 0.5 2 0.5
v 0.6 2 0.5
v -0.2 2 0.4
v -0.1 2 0.4
v -0.5 2 0.3
v -0.4 2 0.3
v -0.2 2 0.3
v -0.1 2 0.3
v 0.5 2 0.3
v 0.6 2 0.3
v -0.5 2 0.2
v -0.4 2 0.2
v -0.3 2 0.2
v -0.2 2 0.2
v 0.2 2 0.2
v 0.3 2 0.2
v -0.3 2 0.1
v -0.2 2 0.1
v 0 2 0.1
v 0.1 2 0.1
v 0.2 2 0.1
v 0.3 2 0.1
v 0.4 2 0.1
v 0.5 2 0.1
v 0 2 0
v 0.1 2 0
v 0.4 2 0
v 0.6 2 0
v -0.6 2 -0.2
v -0.4 2 -0.2
v 0.4 2 -0.2
v 0.5 2 -0.2
v -0.6 2 -0.3
v -0.4 2 -0.3
v 0.4 2 -0.3
v 0.5 2 -0.3
v -0.5 2 -0.4
v -0.4 2 -0.4
v 0.3 2 -0.4
v 0.6 2 -0.4
v 0.2 2 -0.5
v 0.3 2 -0.5
v -0.5 2 -0.6
v -0.4 2 -0.6
v 0.2 2 -0.6
v 0.3 2 -0.6
v 0.4 2 -0.6
v 0.6 2 -0.6
v -0.2 2 -0.7
v -0.1 2 -0.7
v 0.3 2 -0.7
v 0.4 2 -0.7
v -0.2 2 -0.8
v -0.1 2 -0.8
v -1 2 -1
v 1 2 -1

# faces
f 3/2/1 2/2/1 1/2/1
f 4/2/1 2/2/1 3/2/1
f 5/2/1 2/2/1 4/2/1
f 6/2/1 2/2/1 5/2/1
f 7/2/1 3/2/1 1/2/1
f 8/4/1 4/4/1 3/4/1
f 8/2/1 3/2/1 7/2/1
f 9/4/1 4/4/1 8/4/1
f 10/4/1 4/4/1 9/4/1
f 11/2/1 5/2/1 4/2/1
f 11/4/1 4/4/1 10/4/1
f 12/2/1 5/2/1 11/2/1
f 13/4/1 6/4/1 5/4/1
f 13/2/1 5/2/1 12/2/1
f 14/4/1 6/4/1 13/4/1
f 15/2/1 2/2/1 6/2/1
f 15/4/1 6/4/1 14/4/1
f 16/2/1 2/2/1 15/2/1
f 17/2/1 7/2/1 1/2/1
f 18/2/1 7/2/1 17/2/1
f 19/4/1 8/4/1 7/4/1
f 19/4/1 9/4/1 8/4/1
f 20/4/1 9/4/1 19/4/1
f 21/2/1 10/2/1 9/2/1
f 21/4/1 9/4/1 20/4/1
f 22/4/1 12/4/1 11/4/1
f 22/2/1 10/2/1 21/2/1
f 22/4/1 11/4/1 10/4/1
f 23/2/1 14/2/1 13/2/1
f 23/4/1 12/4/1 22/4/1
f 23/2/1 13/2/1 12/2/1
f 24/4/1 15/4/1 14/4/1
f 24/4/1 16/4/1 15/4/1
f 25/2/1 2/2/1 16/2/1
f 25/4/1 16/4/1 24/4/1
f 26/2/1 7/2/1 18/2/1
f 26/4/1 18/4/1 17/4/1
f 27/4/1 19/4/1 7/4/1
f 27/2/1 7/2/1 26/2/1
f 28/2/1 20/2/1 19/2/1
f 28/4/1 19/4/1 27/4/1
f 29/4/1 22/4/1 21/4/1
f 29/2/1 20/2/1 28/2/1
f 29/4/1 21/4/1 20/4/1
f 30/2/1 23/2/1 22/2/1
f 30/4/1 22/4/1 29/4/1
f 31/4/1 24/4/1 14/4/1
f 31/2/1 23/2/1 30/2/1
f 31/2/1 14/2/1 23/2/1
f 32/2/1 25/2/1 24/2/1
f 32/4/1 24/4/1 31/4/1
f 33/2/1 25/2/1 32/2/1
f 34/2/1 17/2/1 1/2/1
f 35/4/1 28/4/1 27/4/1
f 35/2/1 17/2/1 34/2/1
f 35/4/1 30/4/1 29/4/1
f 35/4/1 33/4/1 32/4/1
f 35/4/1 32/4/1 31/4/1
f 35/4/1 27/4/1 26/4/1
f 35/4/1 26/4/1 17/4/1
f 35/4/1 31/4/1 30/4/1
f 35/4/1 29/4/1 28/4/1
f 36/2/1 25/2/1 33/2/1
f 36/4/1 33/4/1 35/4/1
f 37/2/1 2/2/1 25/2/1
f 37/2/1 25/2/1 36/2/1
f 38/4/1 35/4/1 34/4/1
f 38/4/1 36/4/1 35/4/1
f 38/4/1 37/4/1 36/4/1
f 39/4/1 37/4/1 38/4/1
f 40/2/2 41/2/2 42/2/2
f 42/2/2 41/2/2 43/2/2
f 40/2/2 42/2/2 44/2/2
f 44/2/2 42/2/2 45/2/2
f 43/2/2 41/2/2 46/2/2
f 42/4/2 43/4/2 46/4/2
f 46/2/2 41/2/2 47/2/2
f 45/2/2 42/2/2 48/2/2
f 44/4/2 45/4/2 48/4/2
f 48/2/2 42/2/2 49/2/2
f 49/2/2 42/2/2 50/2/2
f 46/4/2 47/4/2 51/4/2
f 50/2/2 42/2/2 51/2/2
f 42/4/2 46/4/2 51/4/2
f 47/2/2 41/2/2 52/2/2
f 51/4/2 47/4/2 52/4/2
f 52/2/2 41/2/2 53/2/2
f 53/2/2 41/2/2 54/2/2
f 54/2/2 41/2/2 55/2/2
f 55/2/2 41/2/2 56/2/2
f 56/2/2 41/2/2 57/2/2
f 49/2/2 50/2/2 58/2/2
f 48/4/2 49/4/2 58/4/2
f 50/4/2 51/4/2 59/4/2
f 58/2/2 50/2/2 59/2/2
f 51/4/2 52/4/2 59/4/2
f 52/4/2 53/4/2 59/4/2
f 53/2/2 54/2/2 60/2/2
f 59/4/2 53/4/2 60/4/2
f 54/4/2 55/4/2 61/4/2
f 60/2/2 54/2/2 61/2/2
f 55/2/2 56/2/2 62/2/2
f 61/4/2 55/4/2 62/4/2
f 56/4/2 57/4/2 63/4/2
f 62/2/2 56/2/2 63/2/2
f 48/4/2 58/4/2 64/4/2
f 61/4/2 62/4/2 64/4/2
f 62/4/2 63/4/2 64/4/2
f 58/4/2 59/4/2 64/4/2
f 59/4/2 60/4/2 64/4/2
f 60/4/2 61/4/2 64/4/2
f 44/4/2 48/4/2 64/4/2
f 63/4/2 57/4/2 65/4/2
f 64/4/2 63/4/2 65/4/2
f 69/2/3 67/2/3 66/2/3
f 70/4/3 68/4/3 67/4/3
f 70/2/3 67/2/3 69/2/3
f 71/2/3 69/2/3 66/2/3
f 72/4/3 70/4/3 69/4/3
f 72/2/3 69/2/3 71/2/3
f 73/2/3 71/2/3 66/2/3
f 73/4/3 72/4/3 71/4/3
f 74/4/3 70/4/3 72/4/3
f 74/4/3 72/4/3 73/4/3
f 75/2/3 74/2/3 73/2/3
f 75/4/3 70/4/3 74/4/3
f 76/4/3 68/4/3 70/4/3
f 76/4/3 70/4/3 75/4/3
f 77/2/3 75/2/3 73/2/3
f 77/2/3 76/2/3 75/2/3
f 78/4/3 68/4/3 76/4/3
f 78/2/3 76/2/3 77/2/3
f 79/2/3 77/2/3 73/2/3
f 79/4/3 78/4/3 77/4/3
f 80/4/3 68/4/3 78/4/3
f 80/4/3 78/4/3 79/4/3
f 81/2/3 79/2/3 73/2/3
f 81/2/3 73/2/3 66/2/3
f 81/2/3 80/2/3 79/2/3
f 82/4/3 68/4/3 80/4/3
f 82/2/3 80/2/3 81/2/3
f 83/2/3 81/2/3 66/2/3
f 84/4/3 82/4/3 81/4/3
f 84/2/3 81/2/3 83/2/3
f 85/2/3 83/2/3 66/2/3
f 85/4/3 84/4/3 83/4/3
f 86/4/3 82/4/3 84/4/3
f 86/4/3 84/4/3 85/4/3
f 87/2/3 85/2/3 66/2/3
f 87/2/3 86/2/3 85/2/3
f 88/4/3 82/4/3 86/4/3
f 88/2/3 86/2/3 87/2/3
f 89/4/3 68/4/3 82/4/3
f 89/4/3 82/4/3 88/4/3
f 90/2/4 91/2/4 93/2/4
f 91/4/4 92/4/4 94/4/4
f 93/2/4 91/2/4 94/2/4
f 90/2/4 93/2/4 95/2/4
f 95/2/4 93/2/4 96/2/4
f 93/4/4 94/4/4 97/4/4
f 96/2/4 93/2/4 97/2/4
f 94/4/4 92/4/4 98/4/4
f 97/4/4 94/4/4 98/4/4
f 95/4/4 96/4/4 99/4/4
f 90/2/4 95/2/4 99/2/4
f 96/2/4 97/2/4 100/2/4
f 99/4/4 96/4/4 100/4/4
f 97/2/4 98/2/4 100/2/4
f 98/4/4 92/4/4 101/4/4
f 100/2/4 98/2/4 101/2/4
f 99/2/4 100/2/4 102/2/4
f 100/4/4 101/4/4 102/4/4
f 102/4/4 101/4/4 103/4/4
f 90/2/4 99/2/4 104/2/4
f 99/2/4 102/2/4 104/2/4
f 102/2/4 103/2/4 104/2/4
f 103/4/4 101/4/4 105/4/4
f 104/2/4 103/2/4 105/2/4
f 105/4/4 101/4/4 106/4/4
f 101/4/4 92/4/4 107/4/4
f 106/4/4 101/4/4 107/4/4
f 105/4/4 106/4/4 108/4/4
f 104/4/4 105/4/4 108/4/4
f 106/2/4 107/2/4 109/2/4
f 108/4/4 106/4/4 109/4/4
f 90/2/4 104/2/4 110/2/4
f 104/4/4 108/4/4 110/4/4
f 108/2/4 109/2/4 111/2/4
f 110/4/4 108/4/4 111/4/4
f 111/2/4 109/2/4 112/2/4
f 109/2/4 107/2/4 113/2/4
f 112/2/4 109/2/4 113/2/4
f 111/2/4 112/2/4 114/2/4
f 110/2/4 111/2/4 114/2/4
f 112/4/4 113/4/4 114/4/4
f 113/2/4 107/2/4 115/2/4
f 114/4/4 113/4/4 115/4/4
f 107/4/4 92/4/4 116/4/4
f 115/2/4 107/2/4 116/2/4
f 114/2/4 115/2/4 117/2/4
f 115/4/4 116/4/4 117/4/4
f 116/4/4 92/4/4 118/4/4
f 117/4/4 116/4/4 118/4/4
f 114/2/4 117/2/4 119/2/4
f 117/2/4 118/2/4 119/2/4
f 118/4/4 92/4/4 120/4/4
f 119/2/4 118/2/4 120/2/4
f 110/2/4 114/2/4 121/2/4
f 114/2/4 119/2/4 121/2/4
f 90/2/4 110/2/4 121/2/4
f 121/2/4 119/2/4 122/2/4
f 122/2/4 119/2/4 123/2/4
f 119/4/4 120/4/4 124/4/4
f 123/2/4 119/2/4 124/2/4
f 122/2/4 123/2/4 125/2/4
f 121/4/4 122/4/4 125/4/4
f 123/4/4 124/4/4 126/4/4
f 125/2/4 123/2/4 126/2/4
f 90/2/4 121/2/4 127/2/4
f 121/4/4 125/4/4 127/4/4
f 125/4/4 126/4/4 127/4/4
f 127/4/4 126/4/4 128/4/4
f 127/2/4 128/2/4 129/2/4
f 128/4/4 126/4/4 129/4/4
f 126/4/4 124/4/4 130/4/4
f 129/4/4 126/4/4 130/4/4
f 129/2/4 130/2/4 131/2/4
f 130/4/4 124/4/4 131/4/4
f 124/4/4 120/4/4 132/4/4
f 131/4/4 124/4/4 132/4/4
f 129/2/4 131/2/4 133/2/4
f 127/2/4 129/2/4 133/2/4
f 131/2/4 132/2/4 133/2/4
f 90/2/4 127/2/4 133/2/4
f 132/4/4 120/4/4 134/4/4
f 133/2/4 132/2/4 134/2/4
f 120/4/4 92/4/4 135/4/4
f 134/4/4 120/4/4 135/4/4
f 138/2/5 137/2/5 136/2/5
f 139/2/5 137/2/5 138/2/5
f 140/4/6 141/4/6 142/4/6
f 142/4/6 141/4/6 143/4/6
f 140/4/6 142/4/6 144/4/6
f 142/3/6 143/3/6 144/3/6
f 143/4/6 141/4/6 145/4/6
f 144/3/6 143/3/6 145/3/6
f 145/4/6 141/4/6 146/4/6
f 146/4/6 141/4/6 147/4/6
f 144/4/6 145/4/6 148/4/6
f 145/4/6 146/4/6 148/4/6
f 146/3/6 147/3/6 148/3/6
f 147/4/6 141/4/6 149/4/6
f 148/3/6 147/3/6 149/3/6
f 149/4/6 141/4/6 150/4/6
f 150/4/6 141/4/6 151/4/6
f 151/4/6 141/4/6 152/4/6
f 148/4/6 149/4/6 153/4/6
f 149/3/6 150/3/6 153/3/6
f 150/4/6 151/4/6 154/4/6
f 153/3/6 150/3/6 154/3/6
f 151/3/6 152/3/6 155/3/6
f 154/4/6 151/4/6 155/4/6
f 152/4/6 141/4/6 156/4/6
f 155/3/6 152/3/6 156/3/6
f 144/4/6 148/4/6 157/4/6
f 154/4/6 155/4/6 157/4/6
f 155/4/6 156/4/6 157/4/6
f 148/4/6 153/4/6 157/4/6
f 153/4/6 154/4/6 157/4/6
f 157/4/6 156/4/6 158/4/6
f 144/4/6 157/4/6 159/4/6
f 159/4/6 157/4/6 160/4/6
f 157/3/6 158/3/6 161/3/6
f 160/4/6 157/4/6 161/4/6
f 158/4/6 156/4/6 162/4/6
f 161/3/6 158/3/6 162/3/6
f 162/4/6 156/4/6 163/4/6
f 156/4/6 141/4/6 164/4/6
f 163/4/6 156/4/6 164/4/6
f 159/3/6 160/3/6 165/3/6
f 144/4/6 159/4/6 165/4/6
f 162/4/6 163/4/6 166/4/6
f 165/3/6 160/3/6 166/3/6
f 160/4/6 161/4/6 166/4/6
f 161/4/6 162/4/6 166/4/6
f 166/4/6 163/4/6 167/4/6
f 167/4/6 163/4/6 168/4/6
f 168/4/6 163/4/6 169/4/6
f 169/4/6 163/4/6 170/4/6
f 165/4/6 166/4/6 171/4/6
f 166/4/6 167/4/6 171/4/6
f 167/3/6 168/3/6 171/3/6
f 168/4/6 169/4/6 172/4/6
f 171/3/6 168/3/6 172/3/6
f 172/4/6 169/4/6 173/4/6
f 173/4/6 169/4/6 174/4/6
f 169/3/6 170/3/6 175/3/6
f 174/4/6 169/4/6 175/4/6
f 170/4/6 163/4/6 176/4/6
f 175/3/6 170/3/6 176/3/6
f 176/4/6 163/4/6 177/4/6
f 163/3/6 164/3/6 178/3/6
f 177/4/6 163/4/6 178/4/6
f 173/3/6 174/3/6 179/3/6
f 171/4/6 172/4/6 179/4/6
f 172/4/6 173/4/6 179/4/6
f 176/4/6 177/4/6 180/4/6
f 179/3/6 174/3/6 180/3/6
f 174/4/6 175/4/6 180/4/6
f 175/4/6 176/4/6 180/4/6
f 177/3/6 178/3/6 181/3/6
f 180/4/6 177/4/6 181/4/6
f 164/4/6 141/4/6 182/4/6
f 181/3/6 178/3/6 182/3/6
f 178/3/6 164/3/6 182/3/6
f 140/4/6 144/4/6 183/4/6
f 144/4/6 165/4/6 183/4/6
f 181/4/6 182/4/6 183/4/6
f 165/4/6 171/4/6 183/4/6
f 179/4/6 180/4/6 183/4/6
f 180/4/6 181/4/6 183/4/6
f 171/4/6 179/4/6 183/4/6
f 183/4/6 182/4/6 184/4/6
f 184/4/6 182/4/6 185/4/6
f 185/4/6 182/4/6 186/4/6
f 140/4/6 183/4/6 187/4/6
f 183/3/6 184/3/6 187/3/6
f 184/4/6 185/4/6 188/4/6
f 187/3/6 184/3/6 188/3/6
f 185/3/6 186/3/6 189/3/6
f 188/4/6 185/4/6 189/4/6
f 186/4/6 182/4/6 190/4/6
f 189/3/6 186/3/6 190/3/6
f 188/4/6 189/4/6 191/4/6
f 187/4/6 188/4/6 191/4/6
f 189/4/6 190/4/6 191/4/6
f 191/4/6 190/4/6 192/4/6
f 192/4/6 190/4/6 193/4/6
f 182/4/6 141/4/6 194/4/6
f 193/4/6 190/4/6 194/4/6
f 190/4/6 182/4/6 194/4/6
f 192/4/6 193/4/6 195/4/6
f 193/3/6 194/3/6 196/3/6
f 195/4/6 193/4/6 196/4/6
f 191/3/6 192/3/6 197/3/6
f 187/4/6 191/4/6 197/4/6
f 192/4/6 195/4/6 198/4/6
f 197/3/6 192/3/6 198/3/6
f 195/3/6 196/3/6 199/3/6
f 198/4/6 195/4/6 199/4/6
f 196/3/6 194/3/6 200/3/6
f 199/3/6 196/3/6 200/3/6
f 200/3/6 194/3/6 201/3/6
f 194/4/6 141/4/6 202/4/6
f 201/3/6 194/3/6 202/3/6
f 198/4/6 199/4/6 203/4/6
f 197/4/6 198/4/6 203/4/6
f 199/4/6 200/4/6 203/4/6
f 203/4/6 200/4/6 204/4/6
f 200/3/6 201/3/6 205/3/6
f 204/4/6 200/4/6 205/4/6
f 201/4/6 202/4/6 206/4/6
f 205/3/6 201/3/6 206/3/6
f 203/3/6 204/3/6 207/3/6
f 197/4/6 203/4/6 207/4/6
f 204/4/6 205/4/6 208/4/6
f 207/3/6 204/3/6 208/3/6
f 205/4/6 206/4/6 208/4/6
f 140/4/6 187/4/6 209/4/6
f 197/4/6 207/4/6 209/4/6
f 207/4/6 208/4/6 209/4/6
f 187/4/6 197/4/6 209/4/6
f 206/4/6 202/4/6 210/4/6
f 209/4/6 208/4/6 210/4/6
f 202/4/6 141/4/6 210/4/6
f 208/4/6 206/4/6 210/4/6
